<?xml version="1.0" encoding="UTF-8"?>
<svg xmlns="http://www.w3.org/2000/svg" width="1000" height="850" viewBox="0 0 1000 850">
<style>.box{fill:white;stroke:black;stroke-width:1.5}.text{font-family:SimHei,Microsoft YaHei,Arial,sans-serif;font-size:11px;text-anchor:middle}.title{font-size:14px;font-weight:bold}.line{stroke:black;stroke-width:1.5;fill:none}.arrow{fill:black}.swimlane{fill:#f0f0f0;stroke:black;stroke-width:1}</style>
<text x="500" y="25" class="text title">服务预约活动图</text>
<rect x="50" y="50" width="220" height="750" class="swimlane"/><text x="160" y="70" class="text title">用户</text>
<rect x="270" y="50" width="220" height="750" class="swimlane"/><text x="380" y="70" class="text title">前端系统</text>
<rect x="490" y="50" width="220" height="750" class="swimlane"/><text x="600" y="70" class="text title">后端Controller</text>
<rect x="710" y="50" width="240" height="750" class="swimlane"/><text x="830" y="70" class="text title">后端Service</text>
<circle cx="160" cy="100" r="15" fill="black"/><line x1="160" y1="115" x2="160" y2="140" class="line"/><polygon points="160,140 155,130 165,130" class="arrow"/>
<rect x="110" y="140" width="100" height="35" rx="5" class="box"/><text x="160" y="162" class="text">浏览服务详情</text>
<line x1="160" y1="175" x2="160" y2="200" class="line"/><polygon points="160,200 155,190 165,190" class="arrow"/>
<rect x="110" y="200" width="100" height="35" rx="5" class="box"/><text x="160" y="222" class="text">点击立即预约</text>
<line x1="210" y1="217" x2="380" y2="217" class="line"/><polygon points="380,217 370,212 370,222" class="arrow"/>
<rect x="320" y="240" width="120" height="35" rx="5" class="box"/><text x="380" y="262" class="text">显示预约页面</text>
<line x1="320" y1="257" x2="160" y2="257" class="line"/><polygon points="160,257 170,252 170,262" class="arrow"/>
<rect x="110" y="280" width="100" height="35" rx="5" class="box"/><text x="160" y="302" class="text">选择预约日期</text>
<line x1="210" y1="297" x2="380" y2="297" class="line"/><polygon points="380,297 370,292 370,302" class="arrow"/>
<rect x="320" y="320" width="120" height="35" rx="5" class="box"/><text x="380" y="342" class="text">请求可用时间段</text>
<line x1="440" y1="337" x2="600" y2="337" class="line"/><polygon points="600,337 590,332 590,342" class="arrow"/>
<rect x="530" y="360" width="140" height="35" rx="5" class="box"/><text x="600" y="382" class="text">getAvailableSlots()</text>
<line x1="670" y1="377" x2="830" y2="377" class="line"/><polygon points="830,377 820,372 820,382" class="arrow"/>
<rect x="750" y="400" width="160" height="35" rx="5" class="box"/><text x="830" y="422" class="text">查询时间段配置</text>
<line x1="830" y1="435" x2="830" y2="460" class="line"/><polygon points="830,460 825,450 835,450" class="arrow"/>
<rect x="750" y="460" width="160" height="35" rx="5" class="box"/><text x="830" y="482" class="text">统计已预约数量</text>
<line x1="830" y1="495" x2="830" y2="520" class="line"/><polygon points="830,520 825,510 835,510" class="arrow"/>
<rect x="750" y="520" width="160" height="35" rx="5" class="box"/><text x="830" y="542" class="text">计算可用状态</text>
<line x1="750" y1="537" x2="380" y2="537" class="line"/><polygon points="380,537 390,532 390,542" class="arrow"/>
<rect x="320" y="560" width="120" height="35" rx="5" class="box"/><text x="380" y="582" class="text">显示时间段列表</text>
<line x1="320" y1="577" x2="160" y2="577" class="line"/><polygon points="160,577 170,572 170,582" class="arrow"/>
<rect x="110" y="600" width="100" height="35" rx="5" class="box"/><text x="160" y="622" class="text">选择时间段</text>
<line x1="160" y1="635" x2="160" y2="660" class="line"/><polygon points="160,660 155,650 165,650" class="arrow"/>
<rect x="100" y="660" width="120" height="35" rx="5" class="box"/><text x="160" y="682" class="text">填写接收人信息</text>
<line x1="220" y1="677" x2="380" y2="677" class="line"/><polygon points="380,677 370,672 370,682" class="arrow"/>
<rect x="320" y="700" width="120" height="35" rx="5" class="box"/><text x="380" y="722" class="text">提交预约</text>
<line x1="440" y1="717" x2="600" y2="717" class="line"/><polygon points="600,717 590,712 590,722" class="arrow"/>
<rect x="530" y="740" width="140" height="35" rx="5" class="box"/><text x="600" y="762" class="text">createAppointment()</text>
<line x1="670" y1="757" x2="830" y2="757" class="line"/><polygon points="830,757 820,752 820,762" class="arrow"/>
<rect x="740" y="780" width="180" height="35" rx="5" class="box"/><text x="830" y="802" class="text">验证日期和时间段</text>
<line x1="920" y1="797" x2="950" y2="797" class="line"/><line x1="950" y1="797" x2="950" y2="120" class="line"/><line x1="950" y1="120" x2="830" y2="120" class="line"/><polygon points="830,120 840,115 840,125" class="arrow"/><text x="970" y="460" class="text">验证失败</text>
<path d="M 800 120 L 830 145 L 860 120 L 830 95 Z" class="box"/><text x="830" y="133" class="text">验证通过</text>
<line x1="830" y1="145" x2="830" y2="170" class="line"/><polygon points="830,170 825,160 835,160" class="arrow"/><text x="850" y="160" class="text">是</text>
<rect x="740" y="170" width="180" height="35" rx="5" class="box"/><text x="830" y="192" class="text">SELECT FOR UPDATE锁定</text>
<line x1="830" y1="205" x2="830" y2="230" class="line"/><polygon points="830,230 825,220 835,220" class="arrow"/>
<rect x="740" y="230" width="180" height="35" rx="5" class="box"/><text x="830" y="252" class="text">生成预约编号</text>
<line x1="830" y1="265" x2="830" y2="290" class="line"/><polygon points="830,290 825,280 835,280" class="arrow"/>
<rect x="740" y="290" width="180" height="35" rx="5" class="box"/><text x="830" y="312" class="text">插入预约记录</text>
<line x1="740" y1="307" x2="380" y2="307" class="line"/><polygon points="380,307 390,302 390,312" class="arrow"/>
<rect x="320" y="330" width="120" height="35" rx="5" class="box"/><text x="380" y="352" class="text">预约成功提示</text>
<line x1="320" y1="347" x2="160" y2="347" class="line"/><polygon points="160,347 170,342 170,352" class="arrow"/>
<rect x="110" y="370" width="100" height="35" rx="5" class="box"/><text x="160" y="392" class="text">查看预约详情</text>
<circle cx="160" cy="425" r="15" fill="white" stroke="black" stroke-width="3"/><circle cx="160" cy="425" r="10" fill="black"/>
</svg>