<?xml version="1.0" encoding="UTF-8"?>
<svg xmlns="http://www.w3.org/2000/svg" width="1600" height="600" viewBox="0 0 1600 600">
<style>.box{fill:white;stroke:black;stroke-width:1.5}.text{font-family:SimHei,Microsoft YaHei,Arial,sans-serif;font-size:13px;text-anchor:middle}.title{font-size:15px;font-weight:bold}.line{stroke:black;stroke-width:1.5;fill:none}</style>
<rect x="700" y="10" width="200" height="50" class="box"/><text x="800" y="35" class="text title">家政服务平台</text>
<line x1="800" y1="60" x2="800" y2="100" class="line"/><line x1="350" y1="100" x2="1250" y2="100" class="line"/><line x1="350" y1="100" x2="350" y2="130" class="line"/><line x1="1250" y1="100" x2="1250" y2="130" class="line"/>
<rect x="300" y="130" width="100" height="40" class="box"/><text x="350" y="155" class="text title">管理员</text>
<rect x="1200" y="130" width="100" height="40" class="box"/><text x="1250" y="155" class="text title">用户</text>
<line x1="350" y1="170" x2="350" y2="200" class="line"/><line x1="20" y1="200" x2="680" y2="200" class="line"/>
<line x1="20" y1="200" x2="20" y2="230" class="line"/><rect x="5" y="230" width="30" height="150" class="box"/><text x="20" y="245" class="text">用</text><text x="20" y="260" class="text">户</text><text x="20" y="275" class="text">管</text><text x="20" y="290" class="text">理</text>
<line x1="65" y1="200" x2="65" y2="230" class="line"/><rect x="50" y="230" width="30" height="150" class="box"/><text x="65" y="245" class="text">服</text><text x="65" y="260" class="text">务</text><text x="65" y="275" class="text">管</text><text x="65" y="290" class="text">理</text>
<line x1="110" y1="200" x2="110" y2="230" class="line"/><rect x="95" y="230" width="30" height="150" class="box"/><text x="110" y="245" class="text">分</text><text x="110" y="260" class="text">类</text><text x="110" y="275" class="text">管</text><text x="110" y="290" class="text">理</text>
<line x1="155" y1="200" x2="155" y2="230" class="line"/><rect x="140" y="230" width="30" height="150" class="box"/><text x="155" y="245" class="text">标</text><text x="155" y="260" class="text">签</text><text x="155" y="275" class="text">管</text><text x="155" y="290" class="text">理</text>
<line x1="200" y1="200" x2="200" y2="230" class="line"/><rect x="185" y="230" width="30" height="150" class="box"/><text x="200" y="245" class="text">预</text><text x="200" y="260" class="text">约</text><text x="200" y="275" class="text">管</text><text x="200" y="290" class="text">理</text>
<line x1="245" y1="200" x2="245" y2="230" class="line"/><rect x="230" y="230" width="30" height="150" class="box"/><text x="245" y="245" class="text">订</text><text x="245" y="260" class="text">单</text><text x="245" y="275" class="text">管</text><text x="245" y="290" class="text">理</text>
<line x1="290" y1="200" x2="290" y2="230" class="line"/><rect x="275" y="230" width="30" height="150" class="box"/><text x="290" y="245" class="text">评</text><text x="290" y="260" class="text">论</text><text x="290" y="275" class="text">管</text><text x="290" y="290" class="text">理</text>
<line x1="335" y1="200" x2="335" y2="230" class="line"/><rect x="320" y="230" width="30" height="150" class="box"/><text x="335" y="245" class="text">广</text><text x="335" y="260" class="text">告</text><text x="335" y="275" class="text">管</text><text x="335" y="290" class="text">理</text>
<line x1="380" y1="200" x2="380" y2="230" class="line"/><rect x="365" y="230" width="30" height="150" class="box"/><text x="380" y="245" class="text">公</text><text x="380" y="260" class="text">告</text><text x="380" y="275" class="text">管</text><text x="380" y="290" class="text">理</text>
<line x1="425" y1="200" x2="425" y2="230" class="line"/><rect x="410" y="230" width="30" height="150" class="box"/><text x="425" y="245" class="text">轮</text><text x="425" y="260" class="text">播</text><text x="425" y="275" class="text">图</text>
<line x1="470" y1="200" x2="470" y2="230" class="line"/><rect x="455" y="230" width="30" height="150" class="box"/><text x="470" y="245" class="text">地</text><text x="470" y="260" class="text">址</text><text x="470" y="275" class="text">管</text><text x="470" y="290" class="text">理</text>
<line x1="515" y1="200" x2="515" y2="230" class="line"/><rect x="500" y="230" width="30" height="150" class="box"/><text x="515" y="245" class="text">操</text><text x="515" y="260" class="text">作</text><text x="515" y="275" class="text">日</text><text x="515" y="290" class="text">志</text>
<line x1="560" y1="200" x2="560" y2="230" class="line"/><rect x="545" y="230" width="30" height="150" class="box"/><text x="560" y="245" class="text">错</text><text x="560" y="260" class="text">误</text><text x="560" y="275" class="text">日</text><text x="560" y="290" class="text">志</text>
<line x1="605" y1="200" x2="605" y2="230" class="line"/><rect x="590" y="230" width="30" height="150" class="box"/><text x="605" y="245" class="text">登</text><text x="605" y="260" class="text">录</text><text x="605" y="275" class="text">日</text><text x="605" y="290" class="text">志</text>
<line x1="650" y1="200" x2="650" y2="230" class="line"/><rect x="635" y="230" width="30" height="150" class="box"/><text x="650" y="245" class="text">统</text><text x="650" y="260" class="text">计</text><text x="650" y="275" class="text">分</text><text x="650" y="290" class="text">析</text>
<line x1="1250" y1="170" x2="1250" y2="200" class="line"/><line x1="920" y1="200" x2="1580" y2="200" class="line"/>
<line x1="920" y1="200" x2="920" y2="230" class="line"/><rect x="905" y="230" width="30" height="150" class="box"/><text x="920" y="245" class="text">用</text><text x="920" y="260" class="text">户</text><text x="920" y="275" class="text">注</text><text x="920" y="290" class="text">册</text>
<line x1="965" y1="200" x2="965" y2="230" class="line"/><rect x="950" y="230" width="30" height="150" class="box"/><text x="965" y="245" class="text">用</text><text x="965" y="260" class="text">户</text><text x="965" y="275" class="text">登</text><text x="965" y="290" class="text">录</text>
<line x1="1010" y1="200" x2="1010" y2="230" class="line"/><rect x="995" y="230" width="30" height="150" class="box"/><text x="1010" y="245" class="text">服</text><text x="1010" y="260" class="text">务</text><text x="1010" y="275" class="text">浏</text><text x="1010" y="290" class="text">览</text>
<line x1="1055" y1="200" x2="1055" y2="230" class="line"/><rect x="1040" y="230" width="30" height="150" class="box"/><text x="1055" y="245" class="text">服</text><text x="1055" y="260" class="text">务</text><text x="1055" y="275" class="text">搜</text><text x="1055" y="290" class="text">索</text>
<line x1="1100" y1="200" x2="1100" y2="230" class="line"/><rect x="1085" y="230" width="30" height="150" class="box"/><text x="1100" y="245" class="text">在</text><text x="1100" y="260" class="text">线</text><text x="1100" y="275" class="text">预</text><text x="1100" y="290" class="text">约</text>
<line x1="1145" y1="200" x2="1145" y2="230" class="line"/><rect x="1130" y="230" width="30" height="150" class="box"/><text x="1145" y="245" class="text">订</text><text x="1145" y="260" class="text">单</text><text x="1145" y="275" class="text">管</text><text x="1145" y="290" class="text">理</text>
<line x1="1190" y1="200" x2="1190" y2="230" class="line"/><rect x="1175" y="230" width="30" height="150" class="box"/><text x="1190" y="245" class="text">地</text><text x="1190" y="260" class="text">址</text><text x="1190" y="275" class="text">管</text><text x="1190" y="290" class="text">理</text>
<line x1="1235" y1="200" x2="1235" y2="230" class="line"/><rect x="1220" y="230" width="30" height="150" class="box"/><text x="1235" y="245" class="text">收</text><text x="1235" y="260" class="text">藏</text><text x="1235" y="275" class="text">心</text><text x="1235" y="290" class="text">愿</text><text x="1235" y="305" class="text">单</text>
<line x1="1280" y1="200" x2="1280" y2="230" class="line"/><rect x="1265" y="230" width="30" height="150" class="box"/><text x="1280" y="245" class="text">评</text><text x="1280" y="260" class="text">论</text><text x="1280" y="275" class="text">评</text><text x="1280" y="290" class="text">价</text>
<line x1="1325" y1="200" x2="1325" y2="230" class="line"/><rect x="1310" y="230" width="30" height="150" class="box"/><text x="1325" y="245" class="text">公</text><text x="1325" y="260" class="text">告</text><text x="1325" y="275" class="text">查</text><text x="1325" y="290" class="text">看</text>
<line x1="1370" y1="200" x2="1370" y2="230" class="line"/><rect x="1355" y="230" width="30" height="150" class="box"/><text x="1370" y="245" class="text">广</text><text x="1370" y="260" class="text">告</text><text x="1370" y="275" class="text">查</text><text x="1370" y="290" class="text">看</text>
<line x1="1415" y1="200" x2="1415" y2="230" class="line"/><rect x="1400" y="230" width="30" height="150" class="box"/><text x="1415" y="245" class="text">个</text><text x="1415" y="260" class="text">人</text><text x="1415" y="275" class="text">中</text><text x="1415" y="290" class="text">心</text>
<line x1="1460" y1="200" x2="1460" y2="230" class="line"/><rect x="1445" y="230" width="30" height="150" class="box"/><text x="1460" y="245" class="text">附</text><text x="1460" y="260" class="text">近</text><text x="1460" y="275" class="text">服</text><text x="1460" y="290" class="text">务</text>
<line x1="1505" y1="200" x2="1505" y2="230" class="line"/><rect x="1490" y="230" width="30" height="150" class="box"/><text x="1505" y="245" class="text">服</text><text x="1505" y="260" class="text">务</text><text x="1505" y="275" class="text">发</text><text x="1505" y="290" class="text">布</text>
<line x1="1550" y1="200" x2="1550" y2="230" class="line"/><rect x="1535" y="230" width="30" height="150" class="box"/><text x="1550" y="245" class="text">我</text><text x="1550" y="260" class="text">的</text><text x="1550" y="275" class="text">预</text><text x="1550" y="290" class="text">约</text>
<text x="800" y="550" class="text title">图 4.2 系统功能结构图</text>
</svg>
